<svg id="visual" viewBox="0 0 900 600" width="900" height="600" xmlns="http://www.w3.org/2000/svg" xmlns:xlink="http://www.w3.org/1999/xlink" version="1.1"><rect x="0" y="0" width="900" height="600" fill="#eceeee"></rect><path d="M0 515L37.5 503C75 491 150 467 225 459.5C300 452 375 461 450 471.8C525 482.7 600 495.3 675 491.5C750 487.7 825 467.3 862.5 457.2L900 447L900 601L862.5 601C825 601 750 601 675 601C600 601 525 601 450 601C375 601 300 601 225 601C150 601 75 601 37.5 601L0 601Z" fill="#158484" stroke-linecap="round" stroke-linejoin="miter"></path></svg>